<svg xmlns:xlink="http://www.w3.org/1999/xlink" width="27" height="28" xmlns="http://www.w3.org/2000/svg"><g fill-rule="nonzero" fill="none"><path d="M3.418 8.197c.373 0 .724-.068 1.053-.204a2.613 2.613 0 001.43-1.419c.136-.322.204-.677.204-1.064 0-.373-.068-.724-.204-1.054a2.613 2.613 0 00-.57-.86 2.758 2.758 0 00-.86-.58 2.613 2.613 0 00-1.053-.215c-.373 0-.724.072-1.054.215a2.63 2.63 0 00-.849.58A2.732 2.732 0 00.752 5.51a2.709 2.709 0 00.763 1.914c.237.244.52.434.85.57.33.136.68.204 1.053.204zm0 16.125c.373 0 .724-.068 1.053-.204a2.613 2.613 0 001.43-1.419c.136-.322.204-.677.204-1.064 0-.373-.068-.724-.204-1.054a2.613 2.613 0 00-.57-.86 2.758 2.758 0 00-.86-.58 2.613 2.613 0 00-1.053-.215c-.373 0-.724.072-1.054.215a2.63 2.63 0 00-.849.58 2.732 2.732 0 00-.763 1.913 2.709 2.709 0 00.763 1.914c.237.244.52.434.85.57.33.136.68.204 1.053.204zM22.553 8.197c.373 0 .724-.068 1.053-.204a2.613 2.613 0 001.43-1.419c.136-.322.204-.677.204-1.064 0-.373-.068-.724-.204-1.054a2.613 2.613 0 00-.57-.86 2.758 2.758 0 00-.86-.58 2.613 2.613 0 00-1.053-.215c-.373 0-.724.072-1.054.215a2.63 2.63 0 00-.849.58 2.732 2.732 0 00-.763 1.913 2.709 2.709 0 00.763 1.914c.237.244.52.434.85.57.33.136.68.204 1.053.204zm0 16.125c.373 0 .724-.068 1.053-.204a2.613 2.613 0 001.43-1.419c.136-.322.204-.677.204-1.064 0-.373-.068-.724-.204-1.054a2.613 2.613 0 00-.57-.86 2.758 2.758 0 00-.86-.58 2.613 2.613 0 00-1.053-.215c-.373 0-.724.072-1.054.215a2.63 2.63 0 00-.849.58 2.732 2.732 0 00-.763 1.913 2.709 2.709 0 00.763 1.914c.237.244.52.434.85.57.33.136.68.204 1.053.204z" fill="#000"></path><path fill="#BD0926" d="M15.251 26.389V14.994h10.786v-3.578H15.251V.101h-3.869v11.315H.65v3.578h10.732v11.395z"></path></g></svg>