<svg width="44" height="22" xmlns="http://www.w3.org/2000/svg" xmlns:xlink="http://www.w3.org/1999/xlink"><defs><path id="parlamento_svg__a" d="M.001.822h7.387V15H.001z"></path><path id="parlamento_svg__c" d="M.174.648h5.838V10H.174z"></path><path id="parlamento_svg__e" d="M.409.854h7.357V15H.409z"></path><path id="parlamento_svg__a" d="M.001.822h7.387V15H.001z"></path><path id="parlamento_svg__c" d="M.174.648h5.838V10H.174z"></path><path id="parlamento_svg__e" d="M.409.854h7.357V15H.409z"></path></defs><g fill="none" fill-rule="evenodd"><path d="M20.993 6A15.95 15.95 0 0012 9.733L14.304 12A12.718 12.718 0 0121 9.231L20.993 6zM18.148 15.465L20.12 18c.235-.168.474-.285.733-.39L20.846 14c-.997.223-1.909.73-2.698 1.465M23.147 14l.006 3.596c.261.105.498.237.732.404l1.968-2.517c-.789-.741-1.707-1.258-2.706-1.483M23 0l.01 3.18c4.153.294 7.924 2.059 10.863 4.82L36 5.769C32.508 2.428 27.985.301 23 0M23 6l.007 3.214A12.636 12.636 0 0129.706 12L32 9.742A15.873 15.873 0 0023 6M19.99 0C15.01.316 10.493 2.434 7 5.756L9.143 8C12.084 5.253 15.853 3.495 20 3.193L19.99 0z" fill="#BD0926"></path><g transform="translate(0 7)" fill="none"><mask id="parlamento_svg__b" fill="#FFFFFF"><use xlink:href="#parlamento_svg__a" fill="#FFFFFF"></use></mask><path d="M5.285.822A21.598 21.598 0 000 15h2.957a18.57 18.57 0 014.43-12.06L5.285.823z" fill="#BD0926" mask="url(#parlamento_svg__b)"></path></g><g transform="translate(31 11)" fill="none"><mask id="parlamento_svg__d" fill="#FFFFFF"><use xlink:href="#parlamento_svg__c" fill="#FFFFFF"></use></mask><path d="M.174 2.725C1.858 4.73 2.908 7.238 2.908 10h3.104c0-3.573-1.396-6.803-3.63-9.353L.175 2.725z" fill="#BD0926" mask="url(#parlamento_svg__d)"></path></g><g transform="translate(36 7)" fill="none"><mask id="parlamento_svg__f" fill="#FFFFFF"><use xlink:href="#parlamento_svg__e" fill="#FFFFFF"></use></mask><path d="M2.512.854L.41 2.972a18.58 18.58 0 014.4 12.03h2.957A21.605 21.605 0 002.512.853" fill="#BD0926" mask="url(#parlamento_svg__f)"></path></g><path d="M15.5 17c-.94 1.138-1.5 2.511-1.5 4h3.38c0-.701.258-1.331.62-1.913L15.5 17zM26 19.107c.352.577.602 1.203.602 1.893H30c0-1.485-.548-2.862-1.475-4L26 19.107zM10.742 12C8.442 14.721 7 18.178 7 22h3.177c0-2.96 1.084-5.641 2.823-7.787L10.742 12z" fill="#BD0926"></path></g></svg>