<svg xmlns:xlink="http://www.w3.org/1999/xlink" xmlns="http://www.w3.org/2000/svg" viewBox="0 0 938 318" class="jsx-1523172557 jsx-2152088237 jsx-2025454423" width="938"  height="318" ><g fill="#FFFFFF"><path d="M0 314v-4h38V8H0V-.1l94.3.4c100.9.5 101.4.5 120.6 5.8 9.2 2.5 24.8 10.4 33.5 17 13.1 9.9 22.4 24.5 26.2 41.4 2.7 11.7 2.5 33-.4 44.9-6.6 26.6-26.2 45.9-56.7 55.9-21.4 7.1-35.2 8.8-75.2 9.4l-33.3.5V310h42v8H0v-4zm152-148c31.1-3.8 44-15.7 49.6-46 2.6-13.9 2.6-50.6 0-64.5-5.1-27.6-14.2-38.4-37.4-44.7-6.5-1.8-11.4-2.2-31.4-2.6L109 7.8V167h17.3c9.5 0 21.1-.5 25.7-1z" fill="#FFFFFF"></path><path d="M277 314.1V310h38V8h-38V-.1l83.3.3c81.9.4 83.4.4 95.7 2.7 37.9 7 61.2 21.2 71.5 43.6 4.3 9.3 5.5 15.4 5.5 28.3 0 12-1.4 18.6-5.9 27.7-9.6 19.3-34.8 34.9-66.7 41.1-4.9.9-9.3 2-9.8 2.5-.4.4 1.8 1 5 1.4 10.9 1.3 25.8 4.6 36.4 8.1 25.3 8.4 42.4 22 51.5 40.9 4.9 10.3 6.4 15.6 7.5 27.5 4.5 48-27.4 81.1-88.1 91.6-8.1 1.4-21.9 1.7-97.6 2.1l-88.3.4v-4zm151.9-6.6c34.5-8.5 52-41.2 47.2-88.2-3.7-36.7-16.9-54.8-45.6-62.4-6.2-1.7-12-2.3-26.2-2.6l-18.3-.5v156.5l18.3-.6c11.3-.4 20.6-1.2 24.6-2.2zm-3.8-164.6c20-4.8 31.6-16.3 37.1-36.7 3.2-11.9 3.7-39.4 1-52.5-4-19.1-13.3-32.3-27.6-39.2-9.9-4.7-19.8-6.5-36.1-6.5H386v138.3l15.5-.7c9.5-.5 18.6-1.5 23.6-2.7z" fill="#FFFFFF"></path><path d="M549 314c0-4.3-.5-4.1 11.8-5.5 10.7-1.2 19.5-6.2 23-13 .6-1.1 1.7-5.5 2.6-9.7 1.4-6.8 1.6-23.3 1.6-142.8V8h-37V0l59.1.2 59.1.3 39.1 106.7c21.6 58.7 39.5 106.8 39.8 106.8.3 0 16.7-45.1 36.4-100.2 19.7-55.2 36.9-103.3 38.3-107.1l2.4-6.7H938v8h-38v301h38v9H791v-9h38l-.1-143.2c0-119.3-.3-142.7-1.3-139.8-.8 1.9-23.7 67.2-51.1 145-27.3 77.8-50.2 142.7-50.7 144.3-1 2.6-1.2 2.7-8.8 2.7h-7.8l-7.4-20.7c-4.1-11.5-28.6-79.7-54.4-151.8l-46.9-131-.3 130c-.2 131.3-.1 138.1 3.4 148.7 2.9 8.8 11.5 14 25.4 15.4 10 1 10 1 10 5.4v4h-90v-4z" fill="#FFFFFF"></path></g></svg>