<svg xmlns="http://www.w3.org/2000/svg" xmlns:xlink="http://www.w3.org/1999/xlink" viewBox="0 0 583.7 110.1" class="jsx-1579753764 jsx-3965557797 jsx-202501127" width="583.7"  height="110.1" ><defs><path id="radiolina_svg__a" d="M388.8 35.6z"></path><path id="radiolina_svg__a" d="M388.8 35.6z"></path><path id="radiolina_svg__a" d="M388.8 35.6z"></path><path id="radiolina_svg__c" d="M388.8 35.6z"></path><path id="radiolina_svg__c" d="M388.8 35.6z"></path></defs><use xlink:href="#radiolina_svg__a" overflow="visible"></use><clipPath id="radiolina_svg__b"><use xlink:href="#radiolina_svg__a" overflow="visible"></use></clipPath><defs><path id="radiolina_svg__c" d="M388.8 35.6z"></path></defs><use xlink:href="#radiolina_svg__c" overflow="visible"></use><clipPath id="radiolina_svg__d"><use xlink:href="#radiolina_svg__c" overflow="visible"></use></clipPath><path d="M54.1 56.4h-5.8c-10.3 1.1-15.5 7-15.5 17.7 0 1.6.1 3.3.3 4.9l2.6 25-28.2 2.9L0 35.3l25.5-2.6 1.7 14.4h.1c2.7-11.5 9.4-17.8 20-18.9h1.8c.7 0 1.3 0 2 .1l3 28.1zM103.9 73.7c-3.2.9-6.5 1.5-9.9 1.8-3.2.1-6.3.7-9.3 1.8-1.9.8-3.1 2.6-3.5 5.4-.6 4 2.2 6.3 8.2 7 8.2 1 13.1-4.3 14.5-16M134 52.1c.2 4.3.1 8.5-.6 12.8l-4.1 33.3c-.3 1.8-.3 3.5 0 5.3.5 1.6 1.4 3.1 2.6 4.3l-.1 1.4-29-3.5-.4-7.9c-7.6 5.7-16.8 7.9-27.7 6.5-6.4-.8-11.7-2.9-15.9-6.3-4.5-3.7-7.1-9.2-6.9-15 0-1.1.1-2.3.3-3.4.8-7 3.8-12.1 9.1-15.2 4-2.4 9.8-3.9 17.3-4.5 6.3-.2 12.5-.4 18.6-.7 5.7-.3 8.8-1.8 9.1-4.6.3-2.5-.9-4.4-3.5-5.7-2.3-1-4.8-1.4-7.3-1.4-4.6 0-7.4 2-8.3 5.9L60.1 50c1.3-10.5 7.6-16.8 18.9-19 6-1.1 13.5-1.1 22.6 0 15.2 1.8 24.9 5.7 29.1 11.7 1.9 2.8 3 6 3.3 9.4zM187.2 67c-1.5-9.8-5.6-14.7-12.2-14.7-4 0-7 1.2-9 3.7-1.5 2-2.4 4.3-2.7 6.8-.3 2.8-.2 5.5.3 8.3 1.5 9.8 5.3 14.6 11.4 14.7 5.5 0 9.2-2.2 11-6.5 1.1-2.5 1.7-5.2 1.6-7.9-.1-1.5-.2-3-.4-4.4m32.4 30.6l-24.9 3.9-1.7-9.6c-4.6 8.6-11.2 13.6-19.7 15-2 .3-4 .5-6 .5-12.5 0-21.7-5.9-27.5-17.8-2.1-4.4-3.5-9.1-4.2-13.9-2.5-15.8.5-27.9 9.2-36.3 3.8-3.9 8.9-6.4 14.3-7.2 2.1-.4 4.2-.5 6.2-.5 6 0 11.7 2.3 16.2 6.3l-5.3-33.7 28-4.3 15.4 97.6zM254.6 100.7l-23.4 3.7-9.5-59.8 23.4-3.7zM312.5 66.1c-.4-4.1-1.8-8-4.1-11.4-2.6-3.8-6-5.4-10.2-4.9-4.2.5-7.7 3.4-9 7.3-1.3 4-1.6 8.2-.9 12.4C290 82.3 295 88.2 303 87.2c6.6-1 10-5.9 10-14.7 0-2.2-.2-4.3-.5-6.4m28-3.9c1.8 12.5-.6 22.6-7.3 30.3-8.1 9.5-19.8 14.3-35.2 14.3-12.6 0-22.4-4.2-29.4-12.5-4.3-5-6.9-11.4-8-19.3-.4-2.4-.5-4.9-.5-7.3 0-12.9 4.9-22.6 14.7-29.2 6.1-4.1 13-6.6 20.3-7.5 2.7-.4 5.3-.5 8-.5 9.1 0 16.7 2.2 23 6.6 8 5.5 12.8 13.9 14.4 25.1zM416.1 102.3l-23.5 3.8-9.5-59.9 23.5-3.6zM506 97.9l-27.9 4.5-6-37.7c-1.3-7.9-4.5-11.8-9.8-11.8-3.6-.1-6.4.8-8.3 2.7s-2.9 4.7-2.9 8.3c0 1.8.1 3.6.4 5.4l5.7 36.3-27.9 4.4L418 39l25.5-4.1 1.8 11.2c3.5-6.8 7.7-11.5 12.5-14.1 2.9-1.4 6-2.4 9.1-2.9 12.3-2 21.1 1.3 26.6 9.9 2.7 4.3 4.6 9.7 5.7 16.2l6.8 42.7z"></path><path d="M553.5 73.7c-3.2.9-6.6 1.5-9.9 1.8-3.2.1-6.3.7-9.3 1.8-2 .8-3.1 2.6-3.5 5.4-.5 4 2.2 6.3 8.2 7 8.2 1 13.1-4.3 14.5-16m30.1-21.6c.2 4.3.1 8.5-.5 12.8L579 98.2c-.3 1.8-.3 3.5 0 5.3.5 1.6 1.4 3.1 2.6 4.3l-.1 1.4-29-3.5-.4-7.9c-7.6 5.7-16.9 7.9-27.8 6.5-6.4-.8-11.7-2.9-15.9-6.3-4.5-3.7-7.1-9.2-6.9-15 0-1.1.1-2.3.3-3.4.8-7 3.9-12 9.1-15.2 4-2.4 9.8-3.9 17.3-4.5 6.3-.2 12.5-.4 18.6-.7 5.7-.3 8.8-1.8 9.1-4.6.3-2.5-.9-4.4-3.5-5.7-2.3-1-4.8-1.4-7.3-1.3-4.6 0-7.4 2-8.3 5.9l-27-3.4c1.3-10.5 7.6-16.8 18.9-19 6-1.1 13.5-1.1 22.6 0 15.2 1.8 24.9 5.7 29.1 11.7 1.8 2.7 3 5.9 3.2 9.3zM218.165 18.332l23.594-3.812 2.983 18.46-23.595 3.812zM378.892 21.894l23.507-3.722 2.91 18.37-23.508 3.723z"></path><path d="M383.3 7.6l-12.1 98.3-28.2-3.4 12.1-98.3z"></path></svg>