<svg xmlns:xlink="http://www.w3.org/1999/xlink" xmlns="http://www.w3.org/2000/svg" viewBox="0 0 1132.62 172.2" class="jsx-1308218246 jsx-1040929665" width="1132.62"  height="172.2" ><g data-name="Livello 2" fill="#FFFFFF"><g data-name="Livello 1" fill="#FFFFFF"><path class="sardiniaecommerce_svg__cls-1" d="M518.88 11.61c-1.36-.07-2.73-.1-4.11-.1s-2.76 0-4.11.1l4.11 3.11zM514.77 9c2.42 0 4.79.11 7.14.29l3.84-2.92a95.91 95.91 0 00-21.95 0l3.83 2.91c2.37-.15 4.72-.28 7.14-.28" fill="#FFFFFF"></path><g class="sardiniaecommerce_svg__cls-2" fill="#FFFFFF"><path class="sardiniaecommerce_svg__cls-1" d="M514.77 3.26a98.63 98.63 0 0113.82 1l3.64-2.76a105.13 105.13 0 00-34.92 0L501 4.22a98.52 98.52 0 0113.82-1" fill="#FFFFFF"></path></g><path class="sardiniaecommerce_svg__cls-1" d="M479.36 23.63l2.12-5.05a69.45 69.45 0 00-8.69 4.91l5.58.71 1-.57M482.89 15.22l1.85-4.41a75.71 75.71 0 00-20.8 11.56l5.17.65a71.29 71.29 0 0113.78-7.8M486.05 7.7l1.7-4.06A82.53 82.53 0 00458.2 19l-.57.48a72 72 0 00-2.08 1.78l4.94.63A78.1 78.1 0 01486.05 7.7M450.58 31.66l-.63-5c-.45.47-.91.93-1.35 1.4l-.09.1a82.26 82.26 0 00-18.26 31.75l5.09-2.13a78.84 78.84 0 0115.24-26.15M452.17 44.18a71.1 71.1 0 00-4.89 8.61l5.72-2.38zM451.7 40.49L451 35a76.12 76.12 0 00-12.49 21.49l5.38-2.26a72.7 72.7 0 017.81-13.73M551.17 24.2l5.58-.71a68.14 68.14 0 00-8.69-4.9l2.12 5.05 1 .56M569.05 21.93l4.95-.63c-.71-.63-1.43-1.25-2.15-1.85l-.48-.39a82.66 82.66 0 00-29.58-15.42l1.7 4.06a78.1 78.1 0 0125.56 14.23M560.43 23l5.17-.65a75.42 75.42 0 00-20.8-11.55l1.85 4.4a71.29 71.29 0 0113.78 7.8M582.25 52.79a71 71 0 00-4.87-8.61l-.8 6.23zM594.2 57.81l5.09 2.13A82.16 82.16 0 00581 28.19l-.08-.1c-.43-.47-.9-.93-1.35-1.4l-.63 5a79 79 0 0115.26 26.12M585.65 54.22l5.35 2.26A75.85 75.85 0 00578.54 35l-.7 5.49a73.09 73.09 0 017.81 13.74M440.16 81.85c-.07 1.46-.11 2.92-.11 4.41s0 2.76.1 4.12l3.24-4.28zM430.76 86.26A93.39 93.39 0 01432 71.11l-3.46-4.56a94.81 94.81 0 00-.05 39.17l3.47-4.57a92.56 92.56 0 01-1.2-14.89M437.55 86.26c0-2.52.11-5 .31-7.44l-3.77-5a91.5 91.5 0 00-.83 12.41 89 89 0 00.8 12.13l3.78-5c-.18-2.34-.29-4.73-.29-7.15M453 121.78l-5.83-2.44a70.57 70.57 0 005 8.87l.82-6.41zM435.23 114.35l-5.09-2.14a81.3 81.3 0 0018.41 32c.44.48.91.94 1.36 1.41l.63-5a78.18 78.18 0 01-15.33-26.35M443.75 117.92l-5.37-2.25A75.52 75.52 0 00451 137.38l.7-5.48a72.15 72.15 0 01-7.93-14M592 86.26q0 3.63-.29 7.14l3.79 5a90.64 90.64 0 00.8-12.13 89.66 89.66 0 00-.83-12.4l-3.78 5c.2 2.44.31 4.92.31 7.44M598.77 86.26a91.22 91.22 0 01-1.2 14.88l3.48 4.58a94.81 94.81 0 000-39.17l-3.46 4.56a93.5 93.5 0 011.23 15.15M589.39 90.38c.06-1.36.1-2.73.1-4.12s0-3-.12-4.41l-3.22 4.25zM576.58 121.8l.81 6.41a67.58 67.58 0 005-8.87l-5.83 2.44zM546.63 157l-1.85 4.38a76 76 0 0020.94-11.57l-5.16-.66a71.11 71.11 0 01-13.93 7.85M510.68 160.59c1.35.06 2.71.1 4.08.1s2.75 0 4.1-.1l-4.09-3.11zM479.4 148.65c-.38-.21-.75-.42-1.11-.64l-5.56.71a67.3 67.3 0 008.76 4.93zM556.81 148.72l-5.56-.71-1.1.64-2.1 5a69.18 69.18 0 008.76-4.93M482.92 157a71.08 71.08 0 01-13.92-7.8l-5.16.65a76.08 76.08 0 0020.93 11.58zM514.77 163.18c-2.43 0-4.8-.1-7.14-.28l-3.83 2.91a95.68 95.68 0 0011 .64 98 98 0 0011-.64l-3.82-2.91c-2.34.18-4.72.28-7.14.28M514.77 168.94a98.67 98.67 0 01-13.83-1l-3.64 2.77a106 106 0 0034.94 0l-3.65-2.71a98.52 98.52 0 01-13.82 1M543.48 164.54l-1.7 4.05a82.76 82.76 0 0029.65-15.38l.23-.19c.83-.68 1.65-1.39 2.46-2.1l-4.94-.63a78.62 78.62 0 01-25.7 14.25M460.36 150.29l-4.95.62c.79.69 1.57 1.37 2.36 2l.36.3a82.63 82.63 0 0029.63 15.36l-1.7-4.05a78.62 78.62 0 01-25.7-14.25M579 140.7l.63 5c.45-.47.92-.93 1.36-1.41a81.33 81.33 0 0018.43-32l-5.1 2.14A78.16 78.16 0 01579 140.7M591.16 115.67l-5.37 2.25a72.63 72.63 0 01-7.92 14l.69 5.48a75.38 75.38 0 0012.6-21.71M492.49 87.27a21.41 21.41 0 01-.18-3.24q0-11.55 7.66-18a26.46 26.46 0 0117.59-6.5q14.81 0 17.14 10.65zm64.6-5l6.66-2.74v-3.44a39.28 39.28 0 00-14.43-28.86Q536 36 516.12 36T481 49.75q-15.26 13.71-15.25 35.82t13.89 36.34q13.89 14.25 37.25 14.25t42-19.66l-7.75-8.38-1.53-1.65-6.24-6.75a31.33 31.33 0 01-11.63 10.37 31.73 31.73 0 01-15.08 3.91q-11.36 0-17.5-7.75L555 83.14zM208.71 133.05h-12.2V93.31h11.31c10.92 0 18.7 8.07 18.7 20s-7.38 19.77-17.81 19.77zm-42-8c6.51-3.38 10.55-9.16 11.82-16.85v35.4zm-16.33-10.92h-13.11V93h13.09c7.27 0 11.51 3.64 11.51 10.43 0 7-4.24 10.72-11.51 10.72zm-73.44 7.48l9.64-24.59L96 121.64zm165.92-20.89c-4.76-13.53-17.53-22.1-34.62-22.1h-29.73v18.86c-2.22-12-12.21-18.83-28.25-18.83h-31v54.77l-23-54.77H77.81L59 122.36C54.78 103 23.21 107.89 23.21 97.24c0-3.15 2.86-4.72 7.19-4.72 5.7 0 15 3.25 22.23 7.38l6.79-14.27a52.92 52.92 0 00-27.55-7.77C15.25 77.86 4.33 86 4.33 98.92c0 24.39 36.3 17.31 36.3 29 0 3.64-3.35 5.61-8.66 5.61-7.18 0-17.9-4.33-25-10.43L0 137.18c8.26 6.79 20.27 11 31.78 11 6.89 0 13.17-1.46 18-4.33l-1.61 3.74h18.5l4.82-12.2h29.81l4.72 12.2h31.23v-19.07h13.38l10 19.09h46.85c17.51 0 30.5-8.61 35.31-22.23v22.23h18v-69h-18zM309.86 120.16l-31.28-41.51h-15.83v68.96h16.81v-41.32l31.29 41.32h15.74V78.65h-16.73v41.51zM369.35 121.64L379 97l9.44 24.6zm.88-43l-23.48 54.71v-54.7h-18v69h30.38l4.82-12.2h29.8l4.72 12.2h19.19l-28.92-69zM665.65 124.29c-4.82 4.92-11.41 8.07-17.11 8.07-10.63 0-18.7-8.46-18.7-19.58s8.07-19.38 18.7-19.38c6 0 12.59 3.55 17.11 9l.14-.17a37.21 37.21 0 018-14.55 40 40 0 00-25.5-9.58c-21 0-36.89 15-36.89 34.83 0 20.26 15.44 35.42 36.2 35.42 9 0 18.62-3.9 25.83-10.13a37.9 37.9 0 01-7.4-13.62z" fill="#FFFFFF"></path><path class="sardiniaecommerce_svg__cls-1" d="M705.89 133.05c-10.23 0-19-8.66-19-19.87s8.66-19.68 19-19.68 18.59 8.46 18.59 19.68-8.27 19.87-18.59 19.87zm74.17-14.17l-18.3-40.23h-19.67v26.58c-3.59-15.91-18-27.08-36.4-27.08-21.34 0-37.29 14.86-37.29 34.93s16 35.31 37.29 35.31c18.44 0 32.81-11.31 36.4-27.38v26.6h16v-43.68l16 36.79H786l16-36.79.09 43.68H818v-69h-19.65zM859.54 118.88l-18.29-40.23h-19.68v68.95h16.04v-43.67l16.03 36.79h11.8l16.04-36.79.1 43.67h15.94V78.65h-19.68l-18.3 40.23zM919.06 120.26h32.85V105.9h-32.85V93.01h36.4V78.64h-54.41v68.97h55.39v-14.36h-37.38v-12.99zM1068.88 124.29c-4.82 4.92-11.41 8.07-17.12 8.07-10.62 0-18.69-8.46-18.69-19.58s8.07-19.38 18.69-19.38c6 0 12.59 3.55 17.12 9l8.36-10v40.84zm-80.17-10.13h-13.09V93h13.09c7.27 0 11.51 3.64 11.51 10.43 0 7-4.24 10.72-11.51 10.72zm106.53 19.08v-13h32.86V105.9h-32.86V93h36.4V78.64h-54.4V88a39.82 39.82 0 00-25.77-9.86c-16 0-29 8.68-34.3 21.58-1.35-13.42-11.55-21.09-28.56-21.09h-31v69h18v-19.11H989l10 19.09h20.37L1005 125.08a21.52 21.52 0 009.65-9.86c1.1 19.12 16.12 33.18 36.1 33.18 9.27 0 19.19-4.14 26.46-10.7v9.91h55.38v-14.37z" fill="#FFFFFF"></path></g></g></svg>