<svg xmlns:xlink="http://www.w3.org/1999/xlink" xmlns="http://www.w3.org/2000/svg" viewBox="0 0 146.1 57.7" width="146.1"  height="57.7" ><path class="top_svg__st0" d="M63.5 16.5h78c2.5 0 4.6 2.1 4.6 4.6v18.4c0 2.5-2.1 4.6-4.6 4.6h-78c-2.5 0-4.6-2.1-4.6-4.6V21.1c0-2.6 2-4.6 4.6-4.6z" fill="#06376B"></path><path class="top_svg__st1" d="M.1 24.6c.1-.7.1-1.5.1-2.4 0-1.5-.1-3.3-.2-5.5 2 .1 5.3.1 9.9.1s8 0 9.9-.1c-.2 2.2-.2 4-.2 5.5 0 .9 0 1.7.1 2.4H19c-.4-1.8-.8-3.2-1.3-4.2s-1.1-1.8-1.8-2.2-1.6-.7-2.6-.7h-.7v18.4c0 .9.1 1.5.3 1.9.2.4.5.7 1 .8s1.2.2 2.2.2v.6c-2.7-.1-4.7-.1-6.1-.1-1.3 0-3.3 0-5.9.1v-.6c1 0 1.7-.1 2.2-.2.5-.1.8-.4 1-.8.2-.4.3-1.1.3-1.9V17.4h-.9c-1 0-1.9.2-2.6.7-.7.4-1.3 1.2-1.8 2.2s-1 2.5-1.3 4.3H.1zm28.3-2.2c2.4 0 4.4.7 5.8 2.1 1.4 1.4 2.1 3.6 2.1 6.7 0 3-.7 5.2-2.1 6.6-1.4 1.4-3.3 2.1-5.8 2.1s-4.4-.7-5.8-2.1c-1.4-1.4-2.1-3.6-2.1-6.6 0-3 .7-5.3 2.1-6.7 1.4-1.4 3.4-2.1 5.8-2.1zm0 .6c-.9 0-1.7.7-2.2 2-.5 1.3-.8 3.4-.8 6.1 0 2.7.3 4.8.8 6.1.5 1.3 1.3 2 2.2 2 .9 0 1.7-.7 2.2-2 .5-1.3.8-3.4.8-6.1 0-2.8-.3-4.8-.8-6.1-.5-1.3-1.3-2-2.2-2zm16.4 2.4c.4-1 1.1-1.8 2-2.3.9-.5 1.9-.8 3-.8s2.1.3 3 .9 1.6 1.5 2 2.7c.5 1.2.7 2.7.7 4.4 0 2-.3 3.8-.9 5.2-.6 1.5-1.4 2.6-2.6 3.3-1.1.7-2.4 1.1-3.9 1.1-1.4 0-2.5-.3-3.3-1v3.2c0 .9.2 1.6.7 2s1.2.5 2.2.5v.7c-.3 0-1 0-2.1-.1-1.1 0-2.2-.1-3.3-.1-.8 0-1.6 0-2.5.1s-1.4.1-1.6.1v-.7c.5 0 .9-.1 1.1-.2.3-.1.5-.4.6-.7.1-.3.2-.8.2-1.3V26.3c0-1-.2-1.7-.5-2.1-.3-.4-.8-.7-1.6-.7v-.7c.7.1 1.3.1 2 .1 1.9 0 3.4-.1 4.7-.4v2.9zm0 12.7c.5.6 1.2.8 2 .8 1.4 0 2.4-.7 3-2 .6-1.4.9-3.3.9-6s-.2-4.5-.7-5.6c-.5-1.1-1.2-1.7-2.1-1.7-.7 0-1.4.2-2 .7-.6.5-1 1.2-1.1 2v11.8z" fill="#BD0926"></path><path class="top_svg__st2" d="M71.7 25.3c1-2 2.7-3 5.3-3 .9 0 1.6.1 2.2.3.6.2 1 .5 1.4.9s.6.9.8 1.6c.2.6.2 1.5.2 2.6v8.6c0 .6.1 1.1.2 1.4.1.3.4.6.6.7s.7.2 1.2.2v.7c-2.1-.1-3.5-.1-4.2-.1-.7 0-2.1 0-4.2.1v-.7c.4 0 .8-.1 1-.2s.4-.4.5-.7c.1-.3.2-.8.2-1.4v-10c0-.9-.1-1.5-.4-2-.3-.4-.8-.7-1.6-.7-.6 0-1.1.2-1.6.5s-.9.8-1.2 1.3c-.3.6-.4 1.2-.4 1.9v8.9c0 .6.1 1.1.2 1.4.1.3.3.6.5.7s.6.2 1 .2v.7c-2-.1-3.3-.1-4-.1-.7 0-2.1 0-4.4.1v-.7c.5 0 .9-.1 1.2-.2s.5-.4.6-.7c.1-.3.2-.8.2-1.4v-9.9c0-1-.2-1.7-.5-2.2-.3-.4-.8-.7-1.6-.7v-.7c.7.1 1.3.1 2 .1 1.9 0 3.5-.1 4.7-.4v2.9zM93 22.4c4 0 6 2.4 6 7.1h-9V31c0 1.4.2 2.6.6 3.5s.9 1.6 1.5 2.1c.6.4 1.3.7 2 .7 1.8 0 3.2-.9 4.3-2.6l.6.2c-.3.9-.7 1.7-1.3 2.5-.6.8-1.3 1.4-2.2 1.9-.9.5-1.9.7-3 .7-1.5 0-2.8-.3-3.9-.9-1.1-.6-2-1.6-2.6-2.9-.6-1.3-.9-2.9-.9-4.8s.3-3.6 1-4.9c.7-1.3 1.6-2.3 2.8-3 1.2-.8 2.6-1.1 4.1-1.1zm-.2.6c-.8 0-1.4.5-1.9 1.4-.5.9-.8 2.4-.9 4.4h5c0-1.7-.1-3.1-.5-4.2-.3-1-.9-1.6-1.7-1.6zM119.4 22.8c1 .1 2.1.1 3.3.1 1.1 0 1.9 0 2.4-.1v.6c-.4.1-.9.4-1.2.8-.4.4-.7 1.1-1 2l-4.3 13.3h-2.1l-4.4-11.9-3.6 11.9h-2.1l-5.1-14.2c-.4-1.2-1-1.8-1.9-1.8v-.7c1.4.1 2.9.2 4.5.2 1.1 0 2.5-.1 4.2-.2v.7c-.5 0-.8 0-1.1.1-.3 0-.5.1-.7.3-.2.1-.2.3-.2.6 0 .2.1.5.2.9l2.9 9.1 3.5-11.6h2.4l4.2 12.3 2-6.4c.3-.9.4-1.8.4-2.4 0-1.6-.8-2.5-2.5-2.7v-.9zM127 33.2c.2 1.9.7 3.3 1.4 4.3s1.7 1.6 3 1.6c.6 0 1.2-.2 1.6-.6.4-.4.7-1 .7-1.7 0-.6-.1-1.1-.4-1.6-.3-.5-.6-.9-1-1.3s-1-.9-1.8-1.5c-1-.8-1.7-1.4-2.2-1.9-.5-.5-.9-1-1.3-1.6-.4-.6-.5-1.4-.5-2.2 0-.9.3-1.7.8-2.4s1.2-1.2 2-1.5c.8-.3 1.8-.5 2.8-.5.8 0 1.6.1 2.2.3s1.2.4 1.6.7c.2.1.4.2.6.2.4 0 .6-.4.8-1.2h.7c-.1 1.1-.1 3-.1 5.6h-.7c-.2-1.4-.6-2.6-1.3-3.5-.7-1-1.6-1.4-2.8-1.4-.6 0-1.2.2-1.6.5s-.6.9-.6 1.5c0 .7.2 1.3.7 1.9s1.1 1 1.7 1.5c.7.5 1.2.8 1.5 1.1.9.7 1.6 1.2 2.1 1.7s.9 1 1.3 1.7.5 1.3.5 2.1c0 .9-.3 1.8-.8 2.5s-1.3 1.3-2.2 1.7c-.9.4-2 .6-3.1.6s-2.1-.2-3-.7c-.6-.3-1.1-.5-1.5-.7h-.2c-.3 0-.6.4-.8 1.1h-.7c.1-1.2.1-3.4.1-6.4h.5z" fill="#FFFFFF"></path></svg>