<svg xmlns:xlink="http://www.w3.org/1999/xlink" class="icon" xmlns="http://www.w3.org/2000/svg" width="24" height="24" viewBox="0 0 21.138 21.138"><g class="accent" fill="#FFFFFF"><path d="M6.648,19.158a12.255,12.255,0,0,0,12.339-12.339q0-.282-.012-.561a8.822,8.822,0,0,0,2.163-2.245,8.654,8.654,0,0,1-2.49.683,4.351,4.351,0,0,0,1.907-2.4,8.689,8.689,0,0,1-2.754,1.053,4.34,4.34,0,0,0-7.39,3.955,12.312,12.312,0,0,1-8.939-4.531,4.34,4.34,0,0,0,1.342,5.79,4.306,4.306,0,0,1-1.964-.543c0,.018,0,.036,0,.055a4.339,4.339,0,0,0,3.479,4.252,4.329,4.329,0,0,1-1.958.074,4.341,4.341,0,0,0,4.051,3.012,8.7,8.7,0,0,1-5.386,1.856,8.823,8.823,0,0,1-1.035-.06,12.278,12.278,0,0,0,6.648,1.948" fill="#FFFFFF"></path></g></svg>