<svg xmlns:xlink="http://www.w3.org/1999/xlink" xmlns="http://www.w3.org/2000/svg" viewBox="0 0 537.47 45.66" width="537.47"  height="45.66" ><g data-name="Livello 2"><g data-name="Livello 1"><path class="unionesarda_svg__cls-1" d="M0 43h.9c3.36 0 3.36-.84 3.36-7.85V11.58c0-7 0-7.86-3.36-7.86H0V2h19.68v1.72h-.9c-3.36 0-3.36.84-3.36 7.86v31h5.34c6.66 0 10.86-2.35 11-9.49h2.64v11.62H0zM31.44 14.76c1.92-.24 5.34-1.44 5.34-3.66 0-.54-.24-.78-1-.78-2.58 0-5.82-1.2-5.82-5.46C30 2 32.4 0 35.58 0c4 0 6.12 2.94 6.12 7.08 0 5.82-4.56 9-10 9.78zM86.52 3.72c-3.84 0-4.56.9-4.56 9.78v15c0 11.64-5.76 17.16-17 17.16-10 0-15.9-5.87-15.9-14V11.82c0-6.66 0-8.1-4.32-8.1V2H64.5v1.72c-3.54 0-4.32.3-4.32 3.84v25.38c0 4.62 1.44 9.55 9.06 9.55 8.4 0 10.08-8 10.08-14.23V15.9c0-12-1-12.18-5-12.18V2h12.2z" fill="#FFFFFF"></path><path class="unionesarda_svg__cls-1" d="M86 43c4.14 0 4.2-4.86 4.2-7.68V11.58c0-7 0-7.86-3.36-7.86h-.9V2h15.42a174.84 174.84 0 009.36 15.36l9.78 15.18h.06V11.4c0-2.82-.06-7.68-4.2-7.68h-.78V2h11.82v1.72c-4.14 0-4.2 4.86-4.2 7.68v33.79h-7.5L92.94 10.38h-.12v24.9c0 2.82.06 7.68 4.2 7.68h.78v1.75H86zM127.5 43h.9c3.36 0 3.36-.84 3.36-7.85V11.58c0-7 0-7.86-3.36-7.86h-.9V2h19.68v1.72h-.9c-3.36 0-3.36.84-3.36 7.86v23.53c0 7 0 7.85 3.36 7.85h.9v1.75H127.5zM148.5 23.34C148.5 10.68 154.74 1 168.24 1S188 10.68 188 23.34s-6.24 22.32-19.74 22.32S148.5 36 148.5 23.34m27.78 0c0-9.78 0-20.58-8-20.58s-8 10.8-8 20.58 0 20.58 8 20.58 8-10.8 8-20.58zM188.64 43c4.14 0 4.2-4.86 4.2-7.68V11.58c0-7 0-7.86-3.36-7.86h-.9V2H204a174.84 174.84 0 009.36 15.36l9.78 15.18h.06V11.4c0-2.82-.06-7.68-4.2-7.68h-.78V2H230v1.72c-4.14 0-4.2 4.86-4.2 7.68v33.79h-7.5l-22.7-34.81h-.12v24.9c0 2.82.06 7.68 4.2 7.68h.78v1.75h-11.82z" fill="#FFFFFF"></path><path class="unionesarda_svg__cls-1" d="M229.44 43h.9c3.36 0 3.36-.84 3.36-7.85V11.58c0-7 0-7.86-3.36-7.86h-.9V2h34.68v10.24h-2.64c-.9-5.22-3-8.16-8.64-8.16h-8V21.6h5.28c3.78 0 6.72-.78 7.2-6.6h2.16v15.42h-2.16c-.54-5.76-3.48-6.72-7.32-6.72h-5.16v18.91h5.58c5.94 0 11.28-.67 11.7-8.89h2.64v11h-35.32zM283.26 33.48h2.52a11.93 11.93 0 0011.88 10.44c4 0 7.86-3.06 7.86-7.44 0-11.46-22.62-4.26-22.62-22.56 0-8.46 7.32-12.9 14.34-12.9a18.18 18.18 0 015.64.9 13.79 13.79 0 003.54.9 1.68 1.68 0 001.8-1.44h2.16v11.1h-2.7c-.78-5.28-5.1-9.72-10.5-9.72-3.84 0-7.68 2.46-7.68 6.66 0 10.14 23.22 4.32 23.22 22 0 8.4-7.08 14.22-15.12 14.22a22.67 22.67 0 01-6.18-.95 17.93 17.93 0 00-4.32-1 1.5 1.5 0 00-1.68 1.55h-2.16zM338.58 2A100.55 100.55 0 00343 14.46l10 26.16c.94 2.38 2 2.38 4.48 2.38v1.75h-21.12V43c2 0 4.56 0 4.56-2.16 0-1.43-3.06-8.1-3.54-9.84h-14.64c-1 2.46-2.82 7.14-2.82 8.83 0 3.17 2.28 3.17 4.92 3.17v1.75h-13.26V43c2.46 0 3.48-1.38 4.56-3.3 4.32-7.62 10.08-23.7 13.62-32 .36-.9 1.92-4.74 2.16-5.64zm-2 26.88l-6.06-16.32-6.9 16.32z" fill="#FFFFFF"></path><path class="unionesarda_svg__cls-1" d="M355.08 43h.9c3.36 0 3.36-.84 3.36-7.85V11.58c0-7 0-7.86-3.36-7.86h-.9V2h19.8c5.46 0 17.12.22 17.12 10.36 0 5.28-5 8.76-9.78 9.66v.12c9.24.72 9.78 7.2 9.78 13.81v2.51c0 2.76.12 4.38 1.5 4.38.78 0 1.86-1.19 2.82-2.4l1.44 1.08a9.68 9.68 0 01-8.52 4.14c-7.08 0-8.4-6.54-8.4-12.42 0-6.78-.36-9.54-5.28-9.54h-5.1v11.41c0 7 0 7.85 3.36 7.85h.9v1.75h-19.64zm15.42-21.4h1.8c5.94 0 8.58-1.56 8.58-8.7s-2.58-8.82-8.58-8.82h-1.8z" fill="#FFFFFF"></path><path class="unionesarda_svg__cls-1" d="M397 43h.9c3.36 0 3.36-.84 3.36-7.85V11.58c0-7 0-7.86-3.36-7.86h-.9V2h22.4c10.86 0 19 7.56 19 21.36s-8.1 21.37-19 21.37H397zm15.42-.35h4.26c8.1 0 10-7.5 10-19.27s-1.86-19.26-10-19.26h-4.26z" fill="#FFFFFF"></path><path class="unionesarda_svg__cls-1" d="M460 2a100.55 100.55 0 004.38 12.48l10.08 26.16c.9 2.34 1.92 2.34 4.44 2.34v1.75h-21.1V43c2 0 4.56 0 4.56-2.16 0-1.43-3.06-8.1-3.54-9.84h-14.64c-1 2.46-2.82 7.14-2.82 8.83 0 3.17 2.28 3.17 4.92 3.17v1.75H433V43c2.46 0 3.48-1.38 4.56-3.3C441.9 32 447.66 16 451.2 7.62c.36-.9 1.92-4.74 2.16-5.64zm-2 26.88l-6.06-16.32-6.94 16.3z" fill="#FFFFFF"></path><path class="unionesarda_svg__cls-2" d="M494.7 44.71a3.88 3.88 0 001.86-.46 3.61 3.61 0 001.33-1.25 3.06 3.06 0 000-3.38 3.61 3.61 0 00-1.33-1.21 3.92 3.92 0 00-3.72 0 3.53 3.53 0 00-1.33 1.21 3.06 3.06 0 000 3.38 3.53 3.53 0 001.33 1.21 3.88 3.88 0 001.86.46M511.4 18.15a3 3 0 00.5 1.69 3.56 3.56 0 001.34 1.21 3.85 3.85 0 001.86.46 3.81 3.81 0 001.85-.46 3.56 3.56 0 001.34-1.21 3.06 3.06 0 000-3.38 3.56 3.56 0 00-1.29-1.21 3.81 3.81 0 00-1.85-.46 3.85 3.85 0 00-1.86.46 3.56 3.56 0 00-1.34 1.21 3 3 0 00-.5 1.69m-5.47 7.71h1.42a4.6 4.6 0 011.14.11 1.7 1.7 0 01.85.45 1.23 1.23 0 01.33.92 5.14 5.14 0 01-.11.91c-.08.36-.19.75-.32 1.17l-1.72 5.4c-.18.52-.36 1.11-.54 1.76s-.34 1.31-.46 2a10.76 10.76 0 00-.2 2 5 5 0 00.52 2.32 3.66 3.66 0 001.51 1.51 4.93 4.93 0 002.36.55 8.55 8.55 0 003-.49 6.13 6.13 0 002.13-1.36 9.24 9.24 0 001.53-2 22.12 22.12 0 001.18-2.54h-1.42c-.09.25-.21.55-.36.89a10.87 10.87 0 01-.54 1.08 8.53 8.53 0 01-.69 1 3.66 3.66 0 01-.84.79 1.7 1.7 0 01-.93.31 1 1 0 01-.81-.33 1.44 1.44 0 01-.22-.88 4.09 4.09 0 01.08-.67c.05-.28.11-.59.18-.91s.17-.63.26-.93l4.64-14.82a19.69 19.69 0 01-2.49.44c-.83.08-1.67.14-2.51.16s-1.68 0-2.53 0h-4zM525.85 24.72h-3.74l-.39 1.14h3.75L523.62 32c-.39 1.29-.7 2.37-.94 3.25s-.44 1.62-.57 2.21-.22 1.12-.27 1.56a11.18 11.18 0 00-.07 1.27 5.78 5.78 0 00.43 2.44 3.22 3.22 0 001.55 1.63 6.84 6.84 0 003.09.59 8.09 8.09 0 003.15-.58 6.2 6.2 0 002.22-1.59 9.38 9.38 0 001.55-2.39 22.18 22.18 0 001.13-3h-1.46l-.43 1.2q-.25.67-.6 1.38a6.91 6.91 0 01-.79 1.31 3.81 3.81 0 01-1 1 2.49 2.49 0 01-1.32.39 1.27 1.27 0 01-1-.42 1.52 1.52 0 01-.34-1 4.64 4.64 0 01.14-1.08c.1-.38.23-.8.38-1.27l4.08-13H537l.43-1.14h-4.56l1.9-5.71h-7.15z" fill="#FFFFFF"></path></g></g></svg>