<svg xmlns:xlink="http://www.w3.org/1999/xlink" xmlns="http://www.w3.org/2000/svg" viewBox="0 0 537.5 45.7" width="537.5"  height="45.7" ><path class="unionesarda-g_svg__st0" d="M0 43h.9c3.4 0 3.4-.8 3.4-7.8V11.6c0-7 0-7.9-3.4-7.9H0V2h19.7v1.7h-.9c-3.4 0-3.4.8-3.4 7.9v31h5.3c6.7 0 10.9-2.3 11-9.5h2.6v11.6H0V43zM31.4 14.8c1.9-.2 5.3-1.4 5.3-3.7 0-.5-.2-.8-1-.8-2.6 0-5.8-1.2-5.8-5.5C30 2 32.4 0 35.6 0c4 0 6.1 2.9 6.1 7.1 0 5.8-4.6 9-10 9.8l-.3-2.1zM86.5 3.7c-3.8 0-4.6.9-4.6 9.8v15c0 11.6-5.8 17.2-17 17.2-10 0-15.9-5.9-15.9-14V11.8c0-6.7 0-8.1-4.3-8.1V2h19.8v1.7c-3.5 0-4.3.3-4.3 3.8v25.4c0 4.6 1.4 9.5 9.1 9.5 8.4 0 10.1-8 10.1-14.2V15.9c0-12-1-12.2-5-12.2V2h12.2v1.7z" fill="#FFFFFF"></path><path class="unionesarda-g_svg__st0" d="M86 43c4.1 0 4.2-4.9 4.2-7.7V11.6c0-7 0-7.9-3.4-7.9h-.9V2h15.4c2.9 5.3 6 10.4 9.4 15.4l9.8 15.2h.1V11.4c0-2.8-.1-7.7-4.2-7.7h-.8V2h11.8v1.7c-4.1 0-4.2 4.9-4.2 7.7v33.8h-7.5L92.9 10.4h-.1v24.9c0 2.8.1 7.7 4.2 7.7h.8v1.8H86V43zM127.5 43h.9c3.4 0 3.4-.8 3.4-7.8V11.6c0-7 0-7.9-3.4-7.9h-.9V2h19.7v1.7h-.9c-3.4 0-3.4.8-3.4 7.9v23.5c0 7 0 7.8 3.4 7.8h.9v1.8h-19.7V43zM148.5 23.3c0-12.7 6.2-22.3 19.7-22.3S188 10.7 188 23.3s-6.2 22.3-19.7 22.3-19.8-9.6-19.8-22.3m27.8 0c0-9.8 0-20.6-8-20.6s-8 10.8-8 20.6 0 20.6 8 20.6 8-10.8 8-20.6zM188.6 43c4.1 0 4.2-4.9 4.2-7.7V11.6c0-7 0-7.9-3.4-7.9h-.9V2H204c2.9 5.3 6 10.4 9.4 15.4l9.8 15.2h.1V11.4c0-2.8-.1-7.7-4.2-7.7h-.8V2H230v1.7c-4.1 0-4.2 4.9-4.2 7.7v33.8h-7.5l-22.7-34.8h-.1v24.9c0 2.8.1 7.7 4.2 7.7h.8v1.8h-11.8V43z" fill="#FFFFFF"></path><path class="unionesarda-g_svg__st0" d="M229.4 43h.9c3.4 0 3.4-.8 3.4-7.8V11.6c0-7 0-7.9-3.4-7.9h-.9V2h34.7v10.2h-2.6c-.9-5.2-3-8.2-8.6-8.2h-8v17.5h5.3c3.8 0 6.7-.8 7.2-6.6h2.2v15.4h-2.2c-.5-5.8-3.5-6.7-7.3-6.7h-5.2v18.9h5.6c5.9 0 11.3-.7 11.7-8.9h2.6v11h-35.3V43zM283.3 33.5h2.5c.8 6 5.9 10.5 11.9 10.4 4 0 7.9-3.1 7.9-7.4 0-11.5-22.6-4.3-22.6-22.6C283 5.4 290.3 1 297.3 1c1.9 0 3.8.3 5.6.9 1.1.5 2.3.8 3.5.9.9.1 1.7-.6 1.8-1.4h2.2v11.1h-2.7c-.8-5.3-5.1-9.7-10.5-9.7-3.8 0-7.7 2.5-7.7 6.7 0 10.1 23.2 4.3 23.2 22 0 8.4-7.1 14.2-15.1 14.2-2.1 0-4.2-.3-6.2-1-1.4-.5-2.8-.8-4.3-1-.8-.1-1.6.5-1.7 1.3v.2h-2.2V33.5zM338.6 2c1.2 4.2 2.7 8.4 4.4 12.5l10 26.2c.9 2.4 2 2.4 4.5 2.4v1.8h-21.1V43c2 0 4.6 0 4.6-2.2 0-1.4-3.1-8.1-3.5-9.8h-14.6c-1 2.5-2.8 7.1-2.8 8.8 0 3.2 2.3 3.2 4.9 3.2v1.8h-13.3V43c2.5 0 3.5-1.4 4.6-3.3 4.3-7.6 10.1-23.7 13.6-32 .4-.9 1.9-4.7 2.2-5.6l6.5-.1zm-2 26.9l-6.1-16.3-6.9 16.3h13z" fill="#FFFFFF"></path><path class="unionesarda-g_svg__st0" d="M355.1 43h.9c3.4 0 3.4-.8 3.4-7.8V11.6c0-7 0-7.9-3.4-7.9h-.9V2h19.8c5.5 0 17.1.2 17.1 10.4 0 5.3-5 8.8-9.8 9.7v.1c9.2.7 9.8 7.2 9.8 13.8v2.5c0 2.8.1 4.4 1.5 4.4.8 0 1.9-1.2 2.8-2.4l1.4 1.1c-1.9 2.8-5.2 4.3-8.5 4.1-7.1 0-8.4-6.5-8.4-12.4 0-6.8-.4-9.5-5.3-9.5h-5.1v11.4c0 7 0 7.8 3.4 7.8h.9v1.8h-19.6V43zm15.4-21.4h1.8c5.9 0 8.6-1.6 8.6-8.7s-2.6-8.8-8.6-8.8h-1.8v17.5z" fill="#FFFFFF"></path><path class="unionesarda-g_svg__st0" d="M397 43h.9c3.4 0 3.4-.8 3.4-7.8V11.6c0-7 0-7.9-3.4-7.9h-.9V2h22.4c10.9 0 19 7.6 19 21.4s-8.1 21.4-19 21.4H397V43zm15.4-.3h4.3c8.1 0 10-7.5 10-19.3s-1.9-19.3-10-19.3h-4.3v38.6z" fill="#FFFFFF"></path><path class="unionesarda-g_svg__st0" d="M460 2c1.2 4.3 2.6 8.4 4.4 12.5l10.1 26.2c.9 2.3 1.9 2.3 4.4 2.3v1.8h-21.1V43c2 0 4.6 0 4.6-2.2 0-1.4-3.1-8.1-3.5-9.8h-14.6c-1 2.5-2.8 7.1-2.8 8.8 0 3.2 2.3 3.2 4.9 3.2v1.8H433V43c2.5 0 3.5-1.4 4.6-3.3 4.3-7.7 10.1-23.7 13.6-32.1.4-.9 1.9-4.7 2.2-5.6h6.6zm-2 26.9l-6.1-16.3-6.9 16.3h13z" fill="#FFFFFF"></path></svg>