<svg xmlns:xlink="http://www.w3.org/1999/xlink" xmlns="http://www.w3.org/2000/svg" viewBox="0 0 715.06 110.48" class="jsx-1523172557 jsx-2152088237 jsx-2025454423" width="715.06"  height="110.48" ><g fill="#FFFFFF"><path d="M715.06 110.48H619.9V0h95.16zm-93-2.12h90.9V2.13H622z" fill="#FFFFFF"></path><path d="M621.85 110.48H526.7V0h95.15zm-93-2.12h90.9V2.13h-90.9zm-62.02 2.12h-64.14V0h64.14zm-62-2.12h59.87V2.13h-59.89z" fill="#FFFFFF"></path><path d="M404.81 110.48h-95.15V0h95.15zm-93-2.12h90.9V2.13h-90.9z" fill="#FFFFFF"></path><path d="M311.9 110.48h-64.14V0h64.14zm-62-2.12h59.89V2.13h-59.9zm278.95 2.12H464.7V0h64.15zm-62-2.12h59.89V2.13h-59.91z" fill="#FFFFFF"></path><path d="M250 110.48h-95.19V0H250zm-93-2.12h90.9V2.13H157zm-61.85 2.12H0V0h95.15zm-93-2.12H93V2.13H2.13z" fill="#FFFFFF"></path><path d="M157 110.48H92.89V0H157zm-62-2.12h59.9V2.13H95zM40.2 90.79L10.38 19.68H31l14.19 39.78c.13.41.4 1.43.81 3s.93 3.77 1.58 6.48q.77-3.25 1.45-5.86c.45-1.76.8-3 1-3.65l14.15-39.75h20.59L55 90.79zm150.87-15.92h3.25c7.61 0 13.17-1.55 16.67-4.69s5.24-8.07 5.24-14.88-1.74-11.77-5.23-14.95-9.06-4.76-16.67-4.76h-3.25zm-19.19 15.92V19.68h14.81q16.56 0 23.42 1.56a33.69 33.69 0 0112.07 5.19 30.37 30.37 0 0110.24 12.06 38.58 38.58 0 013.5 16.79 38.5 38.5 0 01-3.5 16.78 30.36 30.36 0 01-10.24 12.08 33.72 33.72 0 01-11.75 5.12q-6.59 1.51-20.47 1.53h-18.08zm86.03 1.27v-71.1h43.56v15.61H276.8v12.34h23.26v15.21H276.8v12.03h24.67v15.91h-43.56zm99.17-14.81a17.1 17.1 0 0013.33-5.91q5.26-5.94 5.27-15a21.61 21.61 0 00-5.34-14.92 17.82 17.82 0 00-26.59 0c-3.51 4-5.27 9-5.27 14.93s1.73 11.09 5.19 15a17 17 0 0013.41 5.88m38-20.88a36.21 36.21 0 01-11 26.37 39.1 39.1 0 01-12.44 8.09 38.82 38.82 0 01-29.1 0 37.42 37.42 0 01-12.25-8.09 36.46 36.46 0 010-52.74 37.42 37.42 0 0112.25-8.09 39 39 0 0129.19 0A38 38 0 01384.05 30a36.42 36.42 0 0111 26.37zm18.45 34.44V19.68h19.39v54.5h24.07v16.61h-43.46zm126.03 0V19.68h18.7l26.88 36.56c.51.75 1.36 2.26 2.54 4.51s2.48 4.93 3.91 8c-.38-3-.67-5.57-.85-7.87s-.26-4.34-.26-6.12V19.68h18.59v71.11h-18.59l-26.87-36.72a38 38 0 01-2.6-4.49c-1.2-2.25-2.47-4.9-3.86-7.95.38 3 .66 5.61.84 7.92s.27 4.34.27 6.11v35.13zm91.52.54l24.55-71.11h24.28l24.56 71.11H685.2l-3.6-12.73h-27.53l-3.7 12.73zm27.17-26.56h19.27l-7.24-23.47c-.21-.71-.53-1.85-.91-3.44s-.9-3.63-1.51-6.12c-.41 1.74-.83 3.42-1.24 5s-.81 3.1-1.23 4.55zM486.74 20.22h19.59v71.11h-19.59z" fill="#FFFFFF"></path><path d="M115.25 19.68h19.59v71.11h-19.59z" fill="#FFFFFF"></path></g></svg>